<?xml version="1.0" standalone="no"?>
<!DOCTYPE svg PUBLIC "-//W3C//DTD SVG 20010904//EN"
 "http://www.w3.org/TR/2001/REC-SVG-20010904/DTD/svg10.dtd">
<svg version="1.0" xmlns="http://www.w3.org/2000/svg"
 width="40.000000pt" height="38.000000pt" viewBox="0 0 40.000000 38.000000"
 preserveAspectRatio="xMidYMid meet">

<g transform="translate(0.000000,38.000000) scale(0.100000,-0.100000)"
fill="#000000" stroke="none">
<path d="M17 373 c-13 -12 -7 -51 9 -57 13 -5 15 -25 12 -131 -2 -69 0 -125 5
-125 4 0 7 58 7 129 0 94 3 131 13 134 6 3 -1 6 -16 6 -21 1 -28 5 -25 18 4
23 38 30 38 9 0 -14 19 -16 140 -16 121 0 140 2 140 16 0 21 34 14 38 -9 3
-13 -4 -17 -25 -18 -15 0 -22 -3 -15 -6 9 -3 12 -40 12 -134 0 -71 3 -129 8
-129 4 0 6 55 4 122 -3 104 -1 124 13 134 23 17 16 58 -11 62 -11 2 -27 -4
-34 -13 -18 -22 -242 -22 -260 0 -13 16 -42 20 -53 8z"/>
<path d="M11 39 c-1 -21 4 -28 24 -31 14 -3 30 1 36 8 16 20 242 20 258 0 6
-7 22 -11 36 -8 20 3 25 10 24 31 -2 23 -2 24 -6 4 -4 -23 -43 -34 -43 -13 0
6 -53 10 -140 10 -87 0 -140 -4 -140 -10 0 -21 -39 -10 -43 13 -4 20 -4 19 -6
-4z"/>
</g>
</svg>
