<?xml version="1.0" standalone="no"?>
<!DOCTYPE svg PUBLIC "-//W3C//DTD SVG 20010904//EN"
 "http://www.w3.org/TR/2001/REC-SVG-20010904/DTD/svg10.dtd">
<svg version="1.0" xmlns="http://www.w3.org/2000/svg"
 width="32.000000pt" height="42.000000pt" viewBox="0 0 32.000000 42.000000"
 preserveAspectRatio="xMidYMid meet">

<g transform="translate(0.000000,42.000000) scale(0.100000,-0.100000)"
fill="#000000" stroke="none">
<path d="M57 413 c-10 -9 -9 -133 1 -133 4 0 7 28 7 62 l0 63 108 3 c67 2 107
-1 107 -7 0 -6 7 -8 15 -5 8 4 15 10 15 15 0 10 -243 12 -253 2z"/>
<path d="M229 367 l-34 -23 -3 -132 -3 -133 -62 3 -62 3 0 62 c0 35 -3 63 -8
63 -4 0 -7 -30 -5 -67 l3 -68 68 -3 67 -3 0 -34 c0 -19 2 -35 5 -35 9 0 115
69 115 75 0 3 -22 -9 -49 -25 -26 -17 -51 -30 -55 -30 -3 0 -6 72 -6 160 l0
161 35 20 c19 12 35 23 35 25 0 7 -7 4 -41 -19z"/>
<path d="M125 270 c17 -19 16 -19 -46 -23 l-64 -4 68 1 c37 1 67 -1 67 -3 0
-3 -10 -16 -22 -30 -22 -25 -22 -25 6 1 28 26 29 27 12 52 -9 14 -22 26 -28
26 -6 0 -3 -9 7 -20z"/>
</g>
</svg>
