<?xml version="1.0" standalone="no"?>
<!DOCTYPE svg PUBLIC "-//W3C//DTD SVG 20010904//EN"
 "http://www.w3.org/TR/2001/REC-SVG-20010904/DTD/svg10.dtd">
<svg version="1.0" xmlns="http://www.w3.org/2000/svg"
 width="37.000000pt" height="37.000000pt" viewBox="0 0 37.000000 37.000000"
 preserveAspectRatio="xMidYMid meet">

<g transform="translate(0.000000,37.000000) scale(0.100000,-0.100000)"
fill="#000000" stroke="none">
<path d="M0 294 c0 -74 -14 -55 155 -214 54 -50 43 -37 -32 40 l-113 115 0 58
0 57 40 0 40 0 0 -40 c0 -22 3 -40 8 -40 4 0 6 20 4 45 l-4 45 -49 0 -49 0 0
-66z"/>
<path d="M182 228 l-2 -48 45 0 45 0 0 -39 c0 -40 0 -40 43 -43 l42 -3 0 -42
c0 -22 3 -39 8 -36 9 5 9 55 1 77 -4 11 -19 16 -44 16 -38 0 -39 1 -42 38 -3
36 -4 37 -45 40 -41 3 -42 4 -46 45 l-4 42 -1 -47z"/>
<path d="M263 13 c15 -2 39 -2 55 0 15 2 2 4 -28 4 -30 0 -43 -2 -27 -4z"/>
</g>
</svg>
