<?xml version="1.0" standalone="no"?>
<!DOCTYPE svg PUBLIC "-//W3C//DTD SVG 20010904//EN"
 "http://www.w3.org/TR/2001/REC-SVG-20010904/DTD/svg10.dtd">
<svg version="1.0" xmlns="http://www.w3.org/2000/svg"
 viewBox="0 0 40 40"
 preserveAspectRatio="xMidYMid meet">

<g transform="translate(0.000000,39.000000) scale(0.100000,-0.100000)"
fill="#000000" stroke="none">
<path d="M42 347 l-42 -43 0 -152 0 -152 206 0 205 0 -3 22 c-2 13 -17 32 -35
43 -21 13 -30 25 -26 35 12 30 9 81 -6 103 -11 16 -15 40 -12 90 4 95 2 97
-133 97 l-112 0 -42 -43z m41 -9 c-3 -18 -13 -28 -29 -31 -13 -2 -24 -2 -24 1
0 7 53 63 56 59 1 -1 0 -14 -3 -29z m227 -37 l0 -68 -40 -7 c-36 -6 -71 -38
-56 -53 3 -3 1 -13 -4 -23 -6 -12 -4 -24 6 -39 18 -25 19 -23 -23 -45 -17 -9
-34 -25 -38 -36 -5 -17 -15 -20 -70 -20 -52 0 -63 3 -66 18 -2 9 -3 72 -1 139
l3 122 37 3 c35 3 37 5 40 41 l3 37 105 0 104 0 0 -69z m16 -103 c13 -21 12
-72 -2 -99 -22 -43 -45 -45 -76 -9 -22 26 -25 39 -21 69 4 20 11 39 17 43 17
12 74 9 82 -4z m-71 -158 c0 -22 -5 -25 -42 -28 -51 -4 -59 18 -15 42 37 21
57 16 57 -14z m113 10 c40 -25 34 -40 -18 -40 -41 0 -59 22 -39 46 15 18 18
18 57 -6z m-78 -25 c0 -8 -4 -15 -10 -15 -5 0 -10 7 -10 15 0 8 5 15 10 15 6
0 10 -7 10 -15z"/>
<path d="M98 253 c18 -2 45 -2 60 0 15 2 0 4 -33 4 -33 0 -45 -2 -27 -4z"/>
<path d="M208 253 c6 -2 18 -2 25 0 6 3 1 5 -13 5 -14 0 -19 -2 -12 -5z"/>
<path d="M97 223 c18 -2 50 -2 70 0 21 2 7 4 -32 4 -38 0 -55 -2 -38 -4z"/>
<path d="M98 183 c18 -2 45 -2 60 0 15 2 0 4 -33 4 -33 0 -45 -2 -27 -4z"/>
<path d="M88 153 c12 -2 32 -2 45 0 12 2 2 4 -23 4 -25 0 -35 -2 -22 -4z"/>
<path d="M60 50 c0 -5 5 -10 10 -10 6 0 10 5 10 10 0 6 -4 10 -10 10 -5 0 -10
-4 -10 -10z"/>
<path d="M130 50 c0 -5 5 -10 10 -10 6 0 10 5 10 10 0 6 -4 10 -10 10 -5 0
-10 -4 -10 -10z"/>
<path d="M246 181 c-6 -9 64 -24 73 -16 7 8 -1 12 -36 18 -18 4 -35 3 -37 -2z"/>
</g>
</svg>
