<!-- icon666.com - MILLIONS vector ICONS FREE --><svg viewBox="0 0 64 64" xmlns="http://www.w3.org/2000/svg"><path d="m32 39a15 15 0 1 0 -15-15 15.017 15.017 0 0 0 15 15zm-.625-26.781a1 1 0 0 1 1.25 0l10 8a1 1 0 0 1 -.625 1.781h-1v11a1 1 0 0 1 -1 1h-16a1 1 0 0 1 -1-1v-11h-1a1 1 0 0 1 -.625-1.781z" fill="#000000" style="fill: rgb(253, 126, 20);"></path><path d="m25 21v11h3v-7a1 1 0 0 1 1-1h6a1 1 0 0 1 1 1v7h3v-11a1 1 0 0 1 .4-.8l-7.4-5.919-7.4 5.919a1 1 0 0 1 .4.8z" fill="#000000" style="fill: rgb(253, 126, 20);"></path><path d="m30 26h4v6h-4z" fill="#000000" style="fill: rgb(253, 126, 20);"></path><path d="m32 59.53c3.667-4.008 20-22.54 20-34.53 0-11.972-8.6-21-20-21s-20 9.028-20 21c0 11.995 16.332 30.521 20 34.53zm0-52.53a17 17 0 1 1 -17 17 17.019 17.019 0 0 1 17-17z" fill="#000000" style="fill: rgb(253, 126, 20);"></path><path d="m2 60h4v2h-4z" fill="#000000" style="fill: rgb(253, 126, 20);"></path><path d="m8 60h19v2h-19z" fill="#000000" style="fill: rgb(253, 126, 20);"></path><path d="m58 60h4v2h-4z" fill="#000000" style="fill: rgb(253, 126, 20);"></path><path d="m37 60h19v2h-19z" fill="#000000" style="fill: rgb(253, 126, 20);"></path></svg>