<?xml version="1.0" standalone="no"?>
<!DOCTYPE svg PUBLIC "-//W3C//DTD SVG 20010904//EN"
 "http://www.w3.org/TR/2001/REC-SVG-20010904/DTD/svg10.dtd">
<svg version="1.0" xmlns="http://www.w3.org/2000/svg"
 width="40.000000pt" height="39.000000pt" viewBox="0 0 40.000000 39.000000"
 preserveAspectRatio="xMidYMid meet">

<g transform="translate(0.000000,39.000000) scale(0.100000,-0.100000)"
fill="#000000" stroke="none">
<path d="M63 370 c-3 -11 -13 -20 -22 -20 -36 0 -41 -20 -41 -168 0 -80 5
-152 10 -163 10 -18 23 -19 184 -19 136 0 176 3 185 14 8 9 11 64 9 172 l-3
159 -26 3 c-17 2 -29 11 -32 23 -7 25 -27 25 -34 -1 -5 -18 -14 -20 -98 -20
-84 0 -93 2 -98 20 -3 11 -10 20 -17 20 -7 0 -14 -9 -17 -20z m36 -47 c1 15
13 17 95 17 82 0 95 -2 99 -17 3 -10 5 -1 6 20 0 20 6 37 12 37 7 0 10 -14 7
-36 -3 -29 -2 -33 7 -20 7 9 22 16 34 16 16 0 21 -6 21 -25 l0 -25 -179 0
c-168 0 -179 1 -184 19 -9 35 26 44 49 14 12 -16 13 -16 7 4 -3 13 -2 31 3 40
6 14 9 9 14 -22 4 -22 8 -32 9 -22z m279 -175 l-3 -133 -169 -3 c-93 -1 -173
1 -178 6 -5 5 -10 66 -11 136 l-2 126 183 0 183 0 -3 -132z"/>
<path d="M62 223 c4 -24 52 -24 56 0 3 13 -3 17 -28 17 -25 0 -31 -4 -28 -17z
m48 -3 c0 -5 -9 -10 -20 -10 -11 0 -20 5 -20 10 0 6 9 10 20 10 11 0 20 -4 20
-10z"/>
<path d="M132 223 c2 -11 13 -19 28 -20 22 -1 22 -1 3 4 -13 2 -23 8 -23 13 0
5 10 11 23 13 18 4 17 5 -6 6 -22 1 -28 -3 -25 -16z"/>
<path d="M202 223 c2 -12 12 -18 28 -18 16 0 26 6 28 18 3 13 -3 17 -28 17
-25 0 -31 -4 -28 -17z m48 -3 c0 -5 -9 -10 -20 -10 -11 0 -20 5 -20 10 0 6 9
10 20 10 11 0 20 -4 20 -10z"/>
<path d="M272 223 c2 -11 14 -19 31 -21 22 -3 27 1 27 17 0 17 -6 21 -31 21
-24 0 -30 -4 -27 -17z m48 -3 c0 -5 -7 -10 -15 -10 -8 0 -15 5 -15 10 0 6 7
10 15 10 8 0 15 -4 15 -10z"/>
<path d="M62 153 c4 -24 52 -24 56 0 3 13 -3 17 -28 17 -25 0 -31 -4 -28 -17z
m48 -3 c0 -5 -9 -10 -20 -10 -11 0 -20 5 -20 10 0 6 9 10 20 10 11 0 20 -4 20
-10z"/>
<path d="M132 153 c2 -11 13 -19 28 -20 22 -1 22 -1 3 4 -13 2 -23 8 -23 13 0
5 10 11 23 13 18 4 17 5 -6 6 -22 1 -28 -3 -25 -16z"/>
<path d="M202 153 c2 -12 12 -18 28 -18 16 0 26 6 28 18 3 13 -3 17 -28 17
-25 0 -31 -4 -28 -17z m48 -3 c0 -5 -9 -10 -20 -10 -11 0 -20 5 -20 10 0 6 9
10 20 10 11 0 20 -4 20 -10z"/>
<path d="M272 153 c2 -11 14 -19 31 -21 22 -3 27 1 27 17 0 17 -6 21 -31 21
-24 0 -30 -4 -27 -17z m48 -3 c0 -5 -7 -10 -15 -10 -8 0 -15 5 -15 10 0 6 7
10 15 10 8 0 15 -4 15 -10z"/>
<path d="M62 83 c4 -24 52 -24 56 0 3 13 -3 17 -28 17 -25 0 -31 -4 -28 -17z
m48 -3 c0 -5 -9 -10 -20 -10 -11 0 -20 5 -20 10 0 6 9 10 20 10 11 0 20 -4 20
-10z"/>
<path d="M132 83 c2 -11 13 -19 28 -20 22 -1 22 -1 3 4 -13 2 -23 8 -23 13 0
5 10 11 23 13 18 4 17 5 -6 6 -22 1 -28 -3 -25 -16z"/>
<path d="M202 83 c2 -12 12 -18 28 -18 16 0 26 6 28 18 3 13 -3 17 -28 17 -25
0 -31 -4 -28 -17z m48 -3 c0 -5 -9 -10 -20 -10 -11 0 -20 5 -20 10 0 6 9 10
20 10 11 0 20 -4 20 -10z"/>
</g>
</svg>
